<?xml version="1.0" encoding="UTF-8"?><svg id="Layer_1" xmlns="http://www.w3.org/2000/svg" xmlns:xlink="http://www.w3.org/1999/xlink" viewBox="0 0 1366 358"><defs><style>.cls-1{fill:none;}.cls-2{clip-path:url(#clippath);}.cls-3{fill:#f7a006;}.cls-4{fill:#190641;}.cls-5{fill:#9b74e8;}.cls-6{fill:#6042bc;}</style><clipPath id="clippath"><rect class="cls-1" x="-460.42" y="-453.37" width="147.84" height="136.98"/></clipPath></defs><g><g><path class="cls-4" d="m155.5,113.95c1.01-5,4.11-7.5,9.3-7.5h8.35c5.31,0,7.46,2.5,6.45,7.5l-18.41,89.12c-.51,2.26-.7,4.08-.57,5.45.12,1.37.47,2.44,1.04,3.22.57.78,1.26,1.31,2.09,1.61.82.3,1.67.51,2.56.62,1.77.24,3.1.92,3.98,2.05.88,1.13,1.14,2.77.76,4.91l-1.33,5.9c-.51,2.38-1.52,4.2-3.04,5.44-1.52,1.25-3.73,1.88-6.64,1.88-3.16,0-6.42-.3-9.77-.89-3.35-.6-6.26-1.9-8.73-3.93s-4.24-4.97-5.31-8.84c-1.08-3.87-.98-9.08.28-15.63l18.98-90.91Z"/><path class="cls-4" d="m180.55,211.64c0-6.78,2.09-12.41,6.26-16.88,4.17-4.46,9.39-8,15.66-10.63,6.26-2.62,13.06-4.46,20.4-5.54,7.33-1.07,14.17-1.6,20.49-1.6h4.74c.5-2.74.76-4.94.76-6.61,0-3.57-1.23-6.4-3.7-8.48s-6.29-3.13-11.48-3.13c-4.56,0-8.73.69-12.53,2.06s-6.71,2.53-8.73,3.48c-2.15.84-4.15,1.07-5.98.72-1.84-.36-3.26-1.96-4.27-4.82l-1.14-3.39c-1.39-4.16.13-7.32,4.55-9.46,1.39-.72,3.23-1.49,5.5-2.32,2.28-.83,4.84-1.61,7.69-2.32,2.85-.72,5.91-1.34,9.2-1.88,3.29-.54,6.64-.8,10.06-.8,4.18,0,8.35.48,12.53,1.43,4.18.96,7.94,2.53,11.29,4.74,3.35,2.2,6.04,5.09,8.07,8.66,2.02,3.57,3.03,7.92,3.03,13.04,0,1.55-.09,3.04-.28,4.47-.19,1.43-.41,2.98-.66,4.64l-10.06,48.76c-1.14,5-4.3,7.5-9.49,7.5h-6.45c-2.66,0-4.52-.68-5.6-2.05-1.08-1.37-1.3-3.18-.66-5.45l.76-3.57c.13-.72.25-1.31.38-1.79.12-.47.25-.89.38-1.25.13-.36.25-.65.38-.9h-.38c-2.66,3.57-5.31,6.43-7.97,8.58-2.66,2.14-5.98,4.11-9.96,5.89-3.98,1.79-8.63,2.68-13.95,2.68-3.67,0-7.24-.51-10.72-1.52-3.48-1.01-6.55-2.5-9.2-4.46-2.66-1.96-4.81-4.43-6.45-7.41-1.64-2.97-2.47-6.43-2.47-10.36Zm24.29-3.39c0,2.74,1.01,5.06,3.04,6.96,2.02,1.91,5.12,2.86,9.3,2.86,3.29,0,6.48-.74,9.58-2.23,3.1-1.49,5.88-3.42,8.35-5.8,2.47-2.38,4.55-5,6.26-7.86s2.88-5.72,3.51-8.57l.57-2.86h-5.31c-3.29,0-6.99.24-11.1.72-4.11.48-7.97,1.34-11.58,2.59-3.61,1.25-6.61,3.01-9.01,5.27-2.41,2.26-3.61,5.24-3.61,8.93Z"/><path class="cls-4" d="m300.1,149.67c1.01-5,4.18-7.5,9.49-7.5h8.16c5.31,0,7.46,2.5,6.45,7.5l-9.49,45.36c-1.14,5.96-.98,10.72.48,14.29,1.45,3.57,5.15,5.36,11.1,5.36,4.05,0,7.88-.83,11.48-2.5,3.61-1.66,6.83-3.9,9.68-6.7,2.85-2.8,5.28-6.04,7.31-9.73,2.02-3.69,3.48-7.62,4.36-11.79l7.02-34.29c1.14-5,4.3-7.5,9.49-7.5h8.35c5.19,0,7.27,2.5,6.26,7.5l-15.75,76.08c-1.01,5-4.11,7.5-9.3,7.5h-7.4c-5.31,0-7.47-2.44-6.45-7.32l1.33-5.54c0-.59.06-1.13.19-1.61s.25-.89.38-1.25c.12-.48.31-.89.57-1.25h-.38c-1.52,2.14-3.42,4.32-5.69,6.52-2.28,2.2-4.97,4.26-8.06,6.16-3.1,1.91-6.58,3.46-10.44,4.64-3.86,1.19-8.13,1.79-12.81,1.79-10.5,0-18.15-2.98-22.96-8.93-4.81-5.95-6.01-14.88-3.61-26.79l10.25-50.01Z"/><path class="cls-4" d="m414.72,149.67c1.01-5,4.11-7.5,9.3-7.5h7.4c5.31,0,7.4,2.44,6.26,7.32l-1.14,5.71c-.13.6-.25,1.13-.38,1.61-.13.48-.26.89-.38,1.25-.25.48-.44.89-.57,1.25h.38c1.52-2.14,3.45-4.34,5.79-6.61,2.34-2.26,5.09-4.31,8.26-6.16,3.16-1.84,6.67-3.4,10.53-4.64,3.86-1.25,8.19-1.88,13-1.88,10.88,0,18.75,3.01,23.63,9.02,4.87,6.01,6.04,14.91,3.51,26.7l-10.25,50.01c-1.01,5-4.17,7.5-9.49,7.5h-8.16c-5.31,0-7.47-2.5-6.45-7.5l9.3-45.36c1.26-5.83,1.14-10.56-.38-14.2-1.52-3.63-5.19-5.45-11.01-5.45-4.17,0-8.13.84-11.86,2.5-3.73,1.67-7.09,3.9-10.06,6.7-2.97,2.8-5.47,6.07-7.5,9.82-2.02,3.75-3.48,7.71-4.36,11.88l-7.21,34.11c-1.02,5-4.11,7.5-9.3,7.5h-8.35c-5.31,0-7.4-2.5-6.26-7.5l15.75-76.08Z"/><path class="cls-4" d="m514.91,195.21c0-7.38,1.52-14.4,4.55-21.08,3.04-6.66,7.27-12.53,12.71-17.59,5.44-5.06,11.8-9.08,19.07-12.06,7.27-2.97,15.21-4.46,23.82-4.46,7.71,0,14.23,1.01,19.55,3.04,5.31,2.03,9.23,3.87,11.76,5.54,2.15,1.55,3.26,3.22,3.32,5,.06,1.79-.66,3.63-2.18,5.54l-3.04,3.39c-1.9,2.03-3.73,3.04-5.5,3.04s-3.6-.48-5.5-1.43c-2.15-1.07-4.59-2.14-7.31-3.22-2.72-1.07-6.11-1.61-10.15-1.61-5.31,0-10.25.96-14.8,2.86s-8.44,4.4-11.67,7.5c-3.23,3.1-5.76,6.73-7.59,10.89-1.84,4.17-2.75,8.46-2.75,12.86,0,6.55,2.18,11.97,6.55,16.25,4.36,4.29,10.4,6.43,18.12,6.43,5.31,0,9.87-.8,13.66-2.41,3.8-1.61,7.08-3.18,9.87-4.73,2.53-1.19,4.65-1.52,6.36-.98,1.71.54,3.07,2.06,4.08,4.56l1.52,3.21c1.77,4.05.57,7.38-3.61,10-1.27.83-3.01,1.78-5.22,2.86-2.22,1.07-4.84,2.12-7.88,3.12-3.04,1.02-6.42,1.88-10.15,2.59-3.73.71-7.68,1.07-11.86,1.07-7.09,0-13.44-1.02-19.07-3.04-5.63-2.02-10.44-4.82-14.42-8.4-3.98-3.57-7.02-7.83-9.11-12.77-2.09-4.94-3.13-10.27-3.13-15.98Z"/><path class="cls-4" d="m637.5,113.95c1.01-5,4.11-7.5,9.3-7.5h8.54c5.19,0,7.27,2.44,6.26,7.32l-7.78,38.04c-.25.96-.47,1.82-.66,2.59-.19.78-.41,1.46-.66,2.06-.25.71-.51,1.37-.76,1.96h.38c1.52-1.9,3.38-3.93,5.6-6.07,2.21-2.14,4.84-4.14,7.88-5.98,3.04-1.84,6.48-3.36,10.34-4.55,3.86-1.19,8.13-1.79,12.81-1.79,10.63,0,18.41,2.98,23.34,8.93s6.2,14.88,3.8,26.79l-10.25,50.01c-1.02,5-4.18,7.5-9.49,7.5h-8.35c-5.19,0-7.28-2.5-6.26-7.5l9.68-46.44c.5-2.74.79-5.27.85-7.59.06-2.32-.32-4.28-1.14-5.89-.82-1.61-2.15-2.86-3.98-3.75-1.84-.89-4.33-1.34-7.5-1.34-4.18,0-8.13.8-11.86,2.41-3.73,1.61-7.09,3.81-10.06,6.61-2.97,2.8-5.47,6.07-7.5,9.82-2.02,3.75-3.48,7.77-4.36,12.06l-7.21,34.11c-1.01,5-4.17,7.5-9.49,7.5h-8.16c-5.31,0-7.4-2.5-6.26-7.5l22.96-111.8Z"/></g><g><path class="cls-4" d="m891.63,195.21c0-7.38,1.52-14.4,4.55-21.08,3.04-6.66,7.27-12.53,12.71-17.59,5.44-5.06,11.8-9.08,19.07-12.06,7.27-2.97,15.21-4.46,23.82-4.46,7.71,0,14.23,1.01,19.55,3.04,5.31,2.03,9.23,3.87,11.76,5.54,2.15,1.55,3.26,3.22,3.32,5,.06,1.79-.66,3.63-2.18,5.54l-3.03,3.39c-1.9,2.03-3.73,3.04-5.5,3.04s-3.6-.48-5.5-1.43c-2.15-1.07-4.59-2.14-7.31-3.22-2.72-1.07-6.11-1.61-10.15-1.61-5.31,0-10.25.96-14.8,2.86s-8.44,4.4-11.67,7.5-5.76,6.73-7.59,10.89c-1.84,4.17-2.75,8.46-2.75,12.86,0,6.55,2.18,11.97,6.55,16.25,4.36,4.29,10.4,6.43,18.12,6.43,5.31,0,9.87-.8,13.66-2.41,3.8-1.61,7.08-3.18,9.87-4.73,2.53-1.19,4.65-1.52,6.36-.98,1.71.54,3.07,2.06,4.08,4.56l1.51,3.21c1.77,4.05.57,7.38-3.6,10-1.27.83-3.01,1.78-5.22,2.86-2.22,1.07-4.84,2.12-7.88,3.12-3.04,1.02-6.42,1.88-10.15,2.59-3.73.71-7.68,1.07-11.86,1.07-7.09,0-13.44-1.02-19.07-3.04-5.63-2.02-10.44-4.82-14.42-8.4-3.98-3.57-7.02-7.83-9.11-12.77-2.09-4.94-3.13-10.27-3.13-15.98Z"/><path class="cls-4" d="m986.52,211.64c0-6.78,2.08-12.41,6.26-16.88,4.17-4.46,9.39-8,15.65-10.63,6.26-2.62,13.06-4.46,20.4-5.54s14.17-1.6,20.49-1.6h4.74c.51-2.74.76-4.94.76-6.61,0-3.57-1.23-6.4-3.7-8.48-2.47-2.08-6.29-3.13-11.48-3.13-4.56,0-8.73.69-12.53,2.06-3.79,1.37-6.71,2.53-8.73,3.48-2.15.84-4.14,1.07-5.98.72-1.84-.36-3.26-1.96-4.27-4.82l-1.14-3.39c-1.39-4.16.12-7.32,4.55-9.46,1.39-.72,3.23-1.49,5.5-2.32,2.28-.83,4.84-1.61,7.68-2.32,2.85-.72,5.92-1.34,9.21-1.88,3.29-.54,6.64-.8,10.06-.8,4.17,0,8.35.48,12.53,1.43,4.18.96,7.94,2.53,11.29,4.74,3.35,2.2,6.04,5.09,8.07,8.66,2.02,3.57,3.03,7.92,3.03,13.04,0,1.55-.09,3.04-.29,4.47-.19,1.43-.41,2.98-.66,4.64l-10.06,48.76c-1.14,5-4.3,7.5-9.49,7.5h-6.45c-2.66,0-4.53-.68-5.6-2.05s-1.3-3.18-.66-5.45l.76-3.57c.13-.72.25-1.31.38-1.79.12-.47.25-.89.38-1.25.12-.36.25-.65.38-.9h-.38c-2.66,3.57-5.31,6.43-7.97,8.58-2.66,2.14-5.98,4.11-9.96,5.89-3.99,1.79-8.64,2.68-13.95,2.68-3.67,0-7.24-.51-10.72-1.52-3.48-1.01-6.55-2.5-9.21-4.46-2.66-1.96-4.81-4.43-6.45-7.41-1.64-2.97-2.47-6.43-2.47-10.36Zm24.29-3.39c0,2.74,1.01,5.06,3.04,6.96,2.02,1.91,5.12,2.86,9.3,2.86,3.29,0,6.48-.74,9.58-2.23,3.1-1.49,5.88-3.42,8.35-5.8,2.47-2.38,4.56-5,6.26-7.86,1.71-2.86,2.87-5.72,3.51-8.57l.57-2.86h-5.31c-3.29,0-6.99.24-11.1.72-4.11.48-7.97,1.34-11.58,2.59-3.6,1.25-6.61,3.01-9.01,5.27-2.41,2.26-3.61,5.24-3.61,8.93Z"/><path class="cls-4" d="m1107.02,149.67c1.01-5,4.17-7.5,9.49-7.5h7.4c5.19,0,7.27,2.5,6.26,7.5l-1.71,8.57c-.26.96-.48,1.79-.67,2.5-.19.72-.41,1.37-.66,1.97-.26.6-.45,1.19-.57,1.78h.38c1.52-2.74,3.44-5.48,5.79-8.22,2.34-2.74,4.93-5.21,7.78-7.41,2.85-2.2,5.92-3.99,9.21-5.36s6.64-2.06,10.06-2.06c2.66,0,4.4.69,5.22,2.06s.98,3.3.48,5.8l-1.52,6.96c-.88,4.76-4.11,7.14-9.67,7.14-4.43,0-8.45.96-12.05,2.86s-6.8,4.4-9.58,7.5c-2.79,3.1-5.13,6.61-7.02,10.54-1.9,3.93-3.29,7.98-4.17,12.14l-6.08,29.29c-1.01,5-4.17,7.5-9.49,7.5h-8.16c-5.31,0-7.46-2.5-6.45-7.5l15.75-76.08Z"/><path class="cls-4" d="m1181.4,161.46h-5.12c-5.19,0-7.28-2.62-6.26-7.86l.76-3.21c.88-4.64,3.99-6.97,9.3-6.97h5.69l3.79-18.57c1.14-5,4.3-7.5,9.49-7.5h7.59c5.31,0,7.46,2.5,6.45,7.5l-3.99,18.57h14.23c2.53,0,4.36.72,5.5,2.14,1.14,1.43,1.39,3.34.76,5.72l-.57,3.22c-.89,4.64-3.99,6.96-9.3,6.96h-14.23l-7.4,35.36c-.64,3.45-.66,6.22-.1,8.3.57,2.08,1.48,3.75,2.75,5,1.27,1.25,2.75,2.14,4.46,2.68s3.38.86,5.03.98c2.91.24,4.87.96,5.88,2.14,1.01,1.19,1.2,3.04.57,5.54l-1.14,5.54c-.64,2.74-1.87,4.62-3.7,5.63-1.84,1.01-4.4,1.52-7.68,1.52-4.3,0-8.57-.6-12.81-1.78-4.24-1.19-7.91-3.1-11-5.72-3.1-2.62-5.38-6.04-6.83-10.27-1.46-4.22-1.55-9.44-.29-15.63l8.16-39.29Z"/></g></g><g class="cls-2"><image width="1640" height="2360" transform="translate(-524.99 -547.5) scale(.33)" xlink:href="../../../../../../Users/katie/Downloads/Untitled_Artwork 34.jpg"/></g><g><path class="cls-6" d="m841.75,237.79c-1.21,0-2.43-.17-3.64-.53-6.32-1.89-9.81-8.24-7.8-14.19l23.44-69.41c2.01-5.95,8.75-9.22,15.08-7.35,6.32,1.89,9.81,8.24,7.8,14.19l-23.44,69.41c-1.62,4.81-6.35,7.88-11.44,7.88Z"/><path class="cls-5" d="m865.19,168.38h-102.87c-6.63,0-12.01-5.06-12.01-11.3s5.37-11.3,12.01-11.3h102.87c6.63,0,12.01,5.06,12.01,11.3s-5.37,11.3-12.01,11.3Z"/><path class="cls-6" d="m762.33,168.38c-.96,0-1.94-.11-2.92-.34-6.43-1.51-10.34-7.65-8.74-13.7l11.35-42.71c1.61-6.05,8.12-9.75,14.56-8.22,6.43,1.51,10.34,7.65,8.74,13.7l-11.35,42.71c-1.36,5.14-6.26,8.56-11.64,8.56Z"/><path class="cls-5" d="m773.67,125.67h-51.06c-6.63,0-12.01-5.06-12.01-11.3s5.37-11.3,12.01-11.3h51.06c6.63,0,12.01,5.06,12.01,11.3s-5.37,11.3-12.01,11.3Z"/><ellipse class="cls-3" cx="795.18" cy="207.37" rx="11.35" ry="10.68"/><ellipse class="cls-3" cx="748.72" cy="219.12" rx="11.35" ry="10.68"/><ellipse class="cls-3" cx="778.16" cy="248.96" rx="11.35" ry="10.68"/></g></svg>